<svg xmlns="http://www.w3.org/2000/svg" width="222" height="54" viewBox="0 0 222 54" fill="none"><path d="M155.428 31.5492C155.428 29.2141 153.732 27.5852 151.655 27.5852C149.578 27.5852 147.882 29.2141 147.882 31.5492C147.882 33.8843 149.578 35.4822 151.655 35.4822C153.732 35.4822 155.428 33.8533 155.428 31.5492Z" fill="#E5503C"></path><path d="M46.2578 35.0749H51.0878C51.0878 36.1367 51.9899 37.2759 53.7992 37.2759C55.294 37.2759 56.4332 36.5285 56.4332 35.4718C56.4332 34.6883 55.8044 34.2913 54.4281 33.9408L51.995 33.3532C47.2836 32.0954 46.6547 29.4665 46.6547 27.5387C46.6547 24.7087 49.6032 22.0386 53.8456 22.0386C57.1858 22.0386 61.1137 23.6468 61.0725 28.0077H56.16C56.16 26.75 55.1394 26.085 53.9229 26.085C52.7064 26.085 51.8043 26.7551 51.8043 27.6933C51.8043 28.5593 52.5878 28.9871 53.6085 29.2655L56.6343 30.049C61.0364 31.2294 61.5828 33.9769 61.5828 35.4718C61.5828 39.3224 57.6549 41.3224 53.8817 41.3224C50.1084 41.3224 46.2991 39.1213 46.263 35.0749H46.2578Z" fill="#FFF8ED"></path><path d="M82.7464 30.7963V40.8532H77.602V31.1108C77.602 28.2447 75.8751 26.9097 74.1071 26.9097C72.339 26.9097 69.9833 27.9303 69.9833 31.2293V40.8532H64.8389V12.528H69.9833V25.4148C70.7668 23.0591 73.7153 22.0384 75.4834 22.0384C80.2773 22.0384 82.7876 25.3014 82.7515 30.7963H82.7464Z" fill="#FFF8ED"></path><path d="M100.695 22.5074H105.84V40.8531H100.695V38.219C99.4787 40.1056 97.123 41.3221 94.6436 41.3221C89.5765 41.3221 85.8032 37.3942 85.8032 31.6983C85.8032 26.0023 89.494 22.0331 94.757 22.0331C97.1127 22.0331 99.4684 23.0538 100.69 24.9404V22.5074H100.695ZM100.541 31.6983C100.541 28.9095 98.3034 26.827 95.7467 26.827C93.1899 26.827 91.0714 29.0281 91.0714 31.6983C91.0714 34.3684 93.0765 36.5282 95.7828 36.5282C98.489 36.5282 100.535 34.3272 100.535 31.6983H100.541Z" fill="#FFF8ED"></path><path d="M123.633 22.6259L122.453 27.5332C121.355 26.9456 120.448 26.8683 119.819 26.8683C117.185 26.8683 115.381 29.3425 115.381 34.5694V40.853H110.236V22.5074H115.345V26.4353C116.365 23.3734 118.448 22.0331 120.726 22.0331C121.711 22.0331 122.809 22.1878 123.633 22.6208V22.6259Z" fill="#FFF8ED"></path><path d="M143.119 33.3478H129.33C129.882 35.5076 131.609 36.7654 134.042 36.7654C135.928 36.7654 137.732 35.8994 138.872 34.6055L141.856 37.6313C140.129 39.951 136.949 41.3221 133.727 41.3221C128.073 41.3221 123.949 37.353 123.949 31.6983C123.949 26.0435 128.464 22.0331 133.691 22.0331C138.918 22.0331 143.238 25.7652 143.238 31.3838C143.238 31.8941 143.196 32.523 143.119 33.3478ZM138.052 30.0075C137.897 27.8477 136.129 26.4714 133.81 26.4714C131.686 26.4714 129.882 27.5332 129.33 30.0075H138.052Z" fill="#FFF8ED"></path><path d="M199.65 30.7966V40.8535H194.506V31.075C194.506 28.2089 192.779 26.9099 191.011 26.9099C189.243 26.9099 186.887 27.8945 186.887 31.2296V40.8535H181.743V22.5078H186.887V25.611C187.671 23.1367 190.578 22.0387 192.387 22.0387C197.181 22.0387 199.691 25.3017 199.655 30.7966H199.65Z" fill="#E5503C"></path><path d="M221.882 33.3479H208.093C208.645 35.5078 210.371 36.7655 212.804 36.7655C214.691 36.7655 216.495 35.8995 217.634 34.6057L220.619 37.6315C218.892 39.9511 215.712 41.3223 212.49 41.3223C206.835 41.3223 202.711 37.3532 202.711 31.6984C202.711 26.0437 207.227 22.0333 212.454 22.0333C217.681 22.0333 222 25.7653 222 31.384C222 31.8943 221.959 32.5232 221.882 33.3479ZM216.815 30.0077C216.66 27.8478 214.892 26.4715 212.572 26.4715C210.449 26.4715 208.645 27.5334 208.093 30.0077H216.815Z" fill="#E5503C"></path><path d="M168.618 22.0335C164.144 22.0335 160.113 24.8583 159.046 29.3223C162.422 32.1986 164.757 28.9151 164.881 28.7449C165.726 27.549 167.087 26.8274 168.618 26.8274C171.17 26.8274 173.252 28.8326 173.252 31.6986C173.252 34.5646 171.17 36.5286 168.618 36.5286C167.082 36.5286 165.716 35.8069 164.876 34.611C164.757 34.4409 162.082 30.9099 159.041 34.0337C160.102 38.4822 164.139 41.3173 168.618 41.3173C173.84 41.3173 178.479 37.4667 178.479 31.6934C178.479 25.9202 173.845 22.0283 168.618 22.0283V22.0335Z" fill="#E5503C"></path><path d="M33.1838 13.2736C29.5183 13.2736 26.5479 16.2462 26.5479 19.9096C26.5479 23.5729 29.5204 26.5455 33.1838 26.5455C36.8471 26.5455 39.8197 23.5751 39.8197 19.9096C39.8197 16.244 36.8471 13.2736 33.1838 13.2736Z" fill="#E5503C"></path><path d="M26.3386 31.5259C26.1205 30.6775 25.7384 29.8939 25.229 29.2139C24.0179 27.5948 22.0859 26.5479 19.9099 26.5479C16.2444 26.5479 13.274 23.5775 13.274 19.912C13.274 16.2464 16.2465 13.276 19.9099 13.276C23.5732 13.276 26.5458 10.3056 26.5458 6.64014C26.5458 2.97463 23.5754 -8.39233e-05 19.9099 -8.39233e-05C16.2444 -8.39233e-05 13.274 2.97032 13.274 6.63582C13.274 10.3013 10.3014 13.2717 6.63807 13.2717C2.97472 13.2717 0 16.2443 0 19.9098C0 23.5753 2.97256 26.5457 6.63591 26.5457C10.2993 26.5457 13.2718 29.5183 13.2718 33.1816C13.2718 36.845 10.2993 39.8175 6.63591 39.8175C2.97256 39.8175 0 42.7922 0 46.4577C0 50.1233 2.97256 53.0937 6.63591 53.0937C10.2993 53.0937 13.2718 50.1211 13.2718 46.4577C13.2718 42.7944 16.2444 39.8218 19.9077 39.8218C22.0837 39.8218 24.0158 38.7749 25.2268 37.1558C25.7363 36.4737 26.1184 35.6922 26.3364 34.8438C26.3645 34.7381 26.3882 34.6301 26.4098 34.5222C26.4983 34.0904 26.5436 33.6436 26.5436 33.1838C26.5436 32.724 26.4983 32.2771 26.4098 31.8454C26.3882 31.7374 26.3623 31.6295 26.3364 31.5237" fill="#FFF8ED"></path></svg>